<svg width="321" height="207" viewBox="0 0 321 207" fill="none" xmlns="http://www.w3.org/2000/svg">
<rect width="320.425" height="206.172" rx="26" fill="url(#paint0_linear_61_2)"/>
<mask id="mask0_61_2" style="mask-type:alpha" maskUnits="userSpaceOnUse" x="0" y="0" width="321" height="207">
<rect width="320.425" height="206.172" rx="26" fill="url(#paint1_linear_61_2)"/>
</mask>
<g mask="url(#mask0_61_2)">
<path d="M213.348 179.814C213.348 208.67 189.955 232.063 161.099 232.063C132.242 232.063 108.85 208.67 108.85 179.814C108.85 164.599 115.352 150.904 125.73 141.355C135.035 132.793 147.456 127.564 161.099 127.564C189.955 127.564 213.348 150.957 213.348 179.814Z" fill="white" fill-opacity="0.12"/>
<path d="M213.348 179.814C213.348 208.67 189.955 232.063 161.099 232.063H311.893C283.037 232.063 259.644 208.67 259.644 179.814C259.644 176.127 260.026 172.531 260.752 169.06C258.291 169.416 255.775 169.6 253.216 169.6C227.855 169.6 206.714 151.531 201.965 127.564H167.882H161.099C189.955 127.564 213.348 150.957 213.348 179.814Z" fill="white" fill-opacity="0.12"/>
<path d="M201.965 127.564C201.31 124.261 200.967 120.846 200.967 117.351C200.967 112.76 201.559 108.308 202.671 104.066C198.305 111.899 185.234 127.564 167.882 127.564H201.965Z" fill="white" fill-opacity="0.12"/>
<path fill-rule="evenodd" clip-rule="evenodd" d="M311.893 232.063C340.75 232.063 364.142 208.67 364.142 179.814C364.142 150.957 340.75 127.564 311.893 127.564C309.334 127.564 306.818 127.748 304.357 128.104C299.904 149.392 282.493 165.92 260.752 169.06C260.026 172.531 259.644 176.127 259.644 179.814C259.644 208.67 283.037 232.063 311.893 232.063Z" fill="white" fill-opacity="0.12"/>
<path d="M304.357 128.104C299.904 149.392 282.493 165.92 260.752 169.06C265.206 147.772 282.616 131.245 304.357 128.104Z" fill="white" fill-opacity="0.12"/>
<path d="M305.465 117.351C305.465 88.4942 282.072 65.1015 253.216 65.1015C228.95 65.1015 208.548 81.6433 202.671 104.066C201.559 108.308 200.967 112.76 200.967 117.351C200.967 120.846 201.31 124.261 201.965 127.564C206.714 151.531 227.855 169.6 253.216 169.6C255.775 169.6 258.291 169.416 260.752 169.06C265.206 147.772 282.616 131.245 304.357 128.104C305.083 124.633 305.465 121.037 305.465 117.351Z" fill="white" fill-opacity="0.12"/>
</g>
<defs>
<linearGradient id="paint0_linear_61_2" x1="160.213" y1="0" x2="160.213" y2="206.172" gradientUnits="userSpaceOnUse">
<stop stop-color="#1CBD19"/>
<stop offset="1" stop-color="#41C213"/>
</linearGradient>
<linearGradient id="paint1_linear_61_2" x1="160.213" y1="0" x2="160.213" y2="206.172" gradientUnits="userSpaceOnUse">
<stop stop-color="#197BBD"/>
<stop offset="1" stop-color="#3391D0"/>
</linearGradient>
</defs>
</svg>
