<svg width="137" height="34" viewBox="0 0 137 34" fill="none" xmlns="http://www.w3.org/2000/svg">
    <path d="M60.211 16.3146C61.16 16.3146 61.9248 16.4654 62.5054 16.7668C63.086 17.0571 63.3762 17.4479 63.3762 17.9391C63.3762 18.1848 63.3037 18.4025 63.1585 18.5923C63.0134 18.7709 62.8236 18.8602 62.5891 18.8602C62.4105 18.8602 62.2653 18.8379 62.1537 18.7933C62.042 18.7374 61.9304 18.6704 61.8187 18.5923C61.7182 18.503 61.6178 18.4304 61.5173 18.3746C61.4056 18.3187 61.2382 18.2685 61.0148 18.2238C60.8027 18.1792 60.6297 18.1569 60.4957 18.1569C59.6583 18.1569 58.9996 18.4192 58.5195 18.944C58.0505 19.4576 57.8161 20.1331 57.8161 20.9704C57.8161 21.7743 58.0561 22.4442 58.5362 22.9801C59.0163 23.5049 59.6304 23.7673 60.3784 23.7673C60.9255 23.7673 61.3331 23.7003 61.601 23.5663C61.668 23.5328 61.7573 23.477 61.869 23.3988C61.9918 23.3095 62.1034 23.2425 62.2039 23.1979C62.3044 23.1532 62.4272 23.1309 62.5724 23.1309C62.8515 23.1309 63.0692 23.2202 63.2255 23.3988C63.393 23.5775 63.4767 23.8063 63.4767 24.0855C63.4767 24.3534 63.3204 24.6046 63.0078 24.8391C62.6952 25.0736 62.2821 25.2634 61.7685 25.4085C61.2549 25.5425 60.7078 25.6095 60.1272 25.6095C59.2675 25.6095 58.5083 25.4085 57.8496 25.0066C57.202 24.6046 56.6996 24.052 56.3423 23.3486C55.985 22.634 55.8064 21.8413 55.8064 20.9704C55.8064 20.0661 55.9906 19.2622 56.359 18.5588C56.7387 17.8554 57.2634 17.3083 57.9333 16.9175C58.6032 16.5156 59.3624 16.3146 60.211 16.3146ZM67.1051 24.4204C67.1051 24.7107 67.0046 24.9563 66.8036 25.1573C66.6138 25.3471 66.3737 25.442 66.0835 25.442C65.8043 25.442 65.5699 25.3471 65.3801 25.1573C65.1903 24.9563 65.0954 24.7107 65.0954 24.4204V14.0705C65.0954 13.7802 65.1903 13.5401 65.3801 13.3503C65.581 13.1494 65.8267 13.0489 66.1169 13.0489C66.3961 13.0489 66.6305 13.1494 66.8203 13.3503C67.0101 13.5401 67.1051 13.7802 67.1051 14.0705V24.4204ZM77.8865 20.9704C77.8865 21.8636 77.6855 22.6675 77.2836 23.3821C76.8817 24.0855 76.329 24.6326 75.6256 25.0233C74.9334 25.4141 74.1686 25.6095 73.3312 25.6095C72.4827 25.6095 71.7123 25.4141 71.02 25.0233C70.3278 24.6326 69.7807 24.0855 69.3788 23.3821C68.9768 22.6675 68.7759 21.8636 68.7759 20.9704C68.7759 20.0772 68.9768 19.2789 69.3788 18.5755C69.7807 17.861 70.3278 17.3083 71.02 16.9175C71.7123 16.5156 72.4827 16.3146 73.3312 16.3146C74.1686 16.3146 74.9334 16.5156 75.6256 16.9175C76.329 17.3083 76.8817 17.861 77.2836 18.5755C77.6855 19.2789 77.8865 20.0772 77.8865 20.9704ZM75.8768 20.9704C75.8768 20.4233 75.7596 19.9377 75.5251 19.5134C75.3018 19.078 74.9948 18.743 74.604 18.5086C74.2244 18.2741 73.8001 18.1569 73.3312 18.1569C72.8623 18.1569 72.4324 18.2741 72.0416 18.5086C71.662 18.743 71.355 19.078 71.1205 19.5134C70.8972 19.9377 70.7856 20.4233 70.7856 20.9704C70.7856 21.5175 70.8972 22.0032 71.1205 22.4275C71.355 22.8517 71.662 23.1811 72.0416 23.4156C72.4324 23.65 72.8623 23.7673 73.3312 23.7673C73.8001 23.7673 74.2244 23.65 74.604 23.4156C74.9948 23.1811 75.3018 22.8517 75.5251 22.4275C75.7596 22.0032 75.8768 21.5175 75.8768 20.9704ZM86.2143 16.4821C86.5046 16.4821 86.7447 16.5826 86.9345 16.7836C87.1243 16.9734 87.2192 17.2134 87.2192 17.5037V21.7576C87.2192 22.9634 86.8842 23.9068 86.2143 24.5879C85.5556 25.269 84.6122 25.6095 83.384 25.6095C82.1559 25.6095 81.2124 25.269 80.5537 24.5879C79.895 23.9068 79.5656 22.9634 79.5656 21.7576V17.5037C79.5656 17.2134 79.6605 16.9734 79.8503 16.7836C80.0401 16.5826 80.2801 16.4821 80.5704 16.4821C80.8607 16.4821 81.1008 16.5826 81.2906 16.7836C81.4804 16.9734 81.5753 17.2134 81.5753 17.5037V21.7576C81.5753 22.4386 81.726 22.9466 82.0275 23.2816C82.3289 23.6054 82.7811 23.7673 83.384 23.7673C83.9981 23.7673 84.4559 23.6054 84.7573 23.2816C85.0588 22.9466 85.2095 22.4386 85.2095 21.7576V17.5037C85.2095 17.2134 85.3044 16.9734 85.4942 16.7836C85.684 16.5826 85.9241 16.4821 86.2143 16.4821ZM96.6466 13.0489C96.9369 13.0489 97.1769 13.1438 97.3667 13.3336C97.5565 13.5234 97.6514 13.769 97.6514 14.0705V24.4204C97.6514 24.7107 97.5565 24.9563 97.3667 25.1573C97.1769 25.3471 96.9369 25.442 96.6466 25.442C96.3563 25.442 96.1163 25.3471 95.9265 25.1573C95.7478 24.9675 95.6529 24.7275 95.6417 24.4372C95.3626 24.761 94.983 25.0401 94.5029 25.2745C94.034 25.4978 93.5371 25.6095 93.0124 25.6095C92.242 25.6095 91.5442 25.4141 90.9189 25.0233C90.2937 24.6214 89.7969 24.0687 89.4284 23.3653C89.0711 22.6619 88.8925 21.8636 88.8925 20.9704C88.8925 20.0772 89.0711 19.2789 89.4284 18.5755C89.7857 17.861 90.2714 17.3083 90.8855 16.9175C91.5107 16.5156 92.1973 16.3146 92.9454 16.3146C93.4813 16.3146 93.9837 16.4151 94.4527 16.6161C94.9216 16.8059 95.318 17.0515 95.6417 17.353V14.0705C95.6417 13.7802 95.7366 13.5401 95.9265 13.3503C96.1163 13.1494 96.3563 13.0489 96.6466 13.0489ZM93.2636 23.7673C93.9893 23.7673 94.5811 23.5049 95.0388 22.9801C95.4966 22.4442 95.7255 21.7743 95.7255 20.9704C95.7255 20.1666 95.4966 19.4967 95.0388 18.9607C94.5811 18.4248 93.9893 18.1569 93.2636 18.1569C92.549 18.1569 91.9629 18.4248 91.5051 18.9607C91.0473 19.4967 90.8185 20.1666 90.8185 20.9704C90.8185 21.7743 91.0418 22.4442 91.4884 22.9801C91.9461 23.5049 92.5379 23.7673 93.2636 23.7673ZM103.732 16.3146C104.681 16.3146 105.445 16.4654 106.026 16.7668C106.607 17.0571 106.897 17.4479 106.897 17.9391C106.897 18.1848 106.824 18.4025 106.679 18.5923C106.534 18.7709 106.344 18.8602 106.11 18.8602C105.931 18.8602 105.786 18.8379 105.674 18.7933C105.563 18.7374 105.451 18.6704 105.339 18.5923C105.239 18.503 105.138 18.4304 105.038 18.3746C104.926 18.3187 104.759 18.2685 104.535 18.2238C104.323 18.1792 104.15 18.1569 104.016 18.1569C103.179 18.1569 102.52 18.4192 102.04 18.944C101.571 19.4576 101.337 20.1331 101.337 20.9704C101.337 21.7743 101.577 22.4442 102.057 22.9801C102.537 23.5049 103.151 23.7673 103.899 23.7673C104.446 23.7673 104.854 23.7003 105.122 23.5663C105.189 23.5328 105.278 23.477 105.39 23.3988C105.512 23.3095 105.624 23.2425 105.725 23.1979C105.825 23.1532 105.948 23.1309 106.093 23.1309C106.372 23.1309 106.59 23.2202 106.746 23.3988C106.914 23.5775 106.997 23.8063 106.997 24.0855C106.997 24.3534 106.841 24.6046 106.528 24.8391C106.216 25.0736 105.803 25.2634 105.289 25.4085C104.775 25.5425 104.228 25.6095 103.648 25.6095C102.788 25.6095 102.029 25.4085 101.37 25.0066C100.723 24.6046 100.22 24.052 99.8629 23.3486C99.5056 22.634 99.327 21.8413 99.327 20.9704C99.327 20.0661 99.5112 19.2622 99.8796 18.5588C100.259 17.8554 100.784 17.3083 101.454 16.9175C102.124 16.5156 102.883 16.3146 103.732 16.3146ZM115.7 16.3146C115.99 16.3146 116.23 16.4095 116.42 16.5993C116.61 16.7891 116.705 17.0348 116.705 17.3362V24.4204C116.705 24.7107 116.61 24.9563 116.42 25.1573C116.23 25.3471 115.99 25.442 115.7 25.442C115.41 25.442 115.17 25.3471 114.98 25.1573C114.801 24.9675 114.706 24.7275 114.695 24.4372C114.416 24.761 114.037 25.0401 113.556 25.2745C113.088 25.4978 112.591 25.6095 112.066 25.6095C111.296 25.6095 110.598 25.4141 109.972 25.0233C109.347 24.6214 108.85 24.0687 108.482 23.3653C108.125 22.6619 107.946 21.8636 107.946 20.9704C107.946 20.0772 108.125 19.2789 108.482 18.5755C108.839 17.861 109.325 17.3083 109.939 16.9175C110.564 16.5156 111.251 16.3146 111.999 16.3146C112.535 16.3146 113.037 16.4151 113.506 16.6161C113.975 16.8059 114.372 17.0515 114.695 17.353V17.3362C114.695 17.0459 114.79 16.8059 114.98 16.6161C115.17 16.4151 115.41 16.3146 115.7 16.3146ZM112.317 23.7673C113.043 23.7673 113.635 23.5049 114.092 22.9801C114.55 22.4442 114.779 21.7743 114.779 20.9704C114.779 20.1666 114.55 19.4967 114.092 18.9607C113.635 18.4248 113.043 18.1569 112.317 18.1569C111.603 18.1569 111.016 18.4248 110.559 18.9607C110.101 19.4967 109.872 20.1666 109.872 20.9704C109.872 21.7743 110.095 22.4442 110.542 22.9801C111 23.5049 111.591 23.7673 112.317 23.7673ZM118.364 24.052C118.263 23.918 118.213 23.7505 118.213 23.5495C118.213 23.2593 118.358 23.0136 118.648 22.8127C118.805 22.7122 118.967 22.6619 119.134 22.6619C119.369 22.6619 119.592 22.768 119.804 22.9801C120.139 23.3262 120.485 23.583 120.842 23.7505C121.211 23.918 121.652 24.0017 122.165 24.0017C123.036 23.9682 123.472 23.6389 123.472 23.0136C123.472 22.6898 123.321 22.4442 123.02 22.2767C122.729 22.1093 122.272 21.9418 121.646 21.7743C120.999 21.5957 120.468 21.417 120.055 21.2384C119.653 21.0598 119.302 20.7918 119 20.4345C118.71 20.0661 118.565 19.5748 118.565 18.9607C118.565 18.4248 118.715 17.9615 119.017 17.5707C119.33 17.1688 119.731 16.8617 120.223 16.6496C120.725 16.4263 121.256 16.3146 121.814 16.3146C122.383 16.3146 122.953 16.4207 123.522 16.6328C124.091 16.845 124.538 17.1576 124.862 17.5707C125.007 17.7493 125.08 17.9503 125.08 18.1736C125.08 18.4304 124.973 18.6425 124.761 18.81C124.605 18.9328 124.426 18.9942 124.225 18.9942C123.98 18.9942 123.779 18.9161 123.622 18.7598C123.422 18.5141 123.159 18.3187 122.835 18.1736C122.523 18.0285 122.165 17.9559 121.764 17.9559C120.915 17.9559 120.491 18.2629 120.491 18.877C120.491 19.1226 120.569 19.3236 120.725 19.4799C120.881 19.6251 121.077 19.7423 121.311 19.8316C121.557 19.9098 121.898 20.0102 122.333 20.1331C122.936 20.3005 123.438 20.4736 123.84 20.6522C124.242 20.8309 124.583 21.1044 124.862 21.4729C125.141 21.8413 125.281 22.327 125.281 22.9299C125.281 23.477 125.119 23.9571 124.795 24.3702C124.471 24.7721 124.052 25.0792 123.539 25.2913C123.036 25.5034 122.517 25.6095 121.981 25.6095C121.244 25.6095 120.558 25.4867 119.921 25.241C119.285 24.9954 118.766 24.5991 118.364 24.052ZM131.668 16.3146C132.774 16.3146 133.538 16.6552 133.963 17.3362C134.387 18.0061 134.599 18.9384 134.599 20.1331V24.4204C134.599 24.7107 134.504 24.9563 134.314 25.1573C134.125 25.3471 133.885 25.442 133.594 25.442C133.304 25.442 133.064 25.3471 132.874 25.1573C132.684 24.9563 132.589 24.7107 132.589 24.4204V20.1331C132.589 19.519 132.467 19.0389 132.221 18.6928C131.987 18.3355 131.568 18.1569 130.965 18.1569C130.34 18.1569 129.848 18.3467 129.491 18.7263C129.145 19.0947 128.972 19.5636 128.972 20.1331V24.4204C128.972 24.7107 128.877 24.9563 128.687 25.1573C128.498 25.3471 128.257 25.442 127.967 25.442C127.677 25.442 127.437 25.3471 127.247 25.1573C127.057 24.9563 126.962 24.7107 126.962 24.4204V14.0705C126.962 13.7802 127.057 13.5401 127.247 13.3503C127.437 13.1494 127.677 13.0489 127.967 13.0489C128.257 13.0489 128.498 13.1494 128.687 13.3503C128.877 13.5401 128.972 13.7802 128.972 14.0705V17.7717C129.273 17.3697 129.653 17.0292 130.111 16.7501C130.58 16.4598 131.099 16.3146 131.668 16.3146Z" fill="#0F4264"/>
    <path d="M18.3635 24.3729C18.3635 29.2796 14.3858 33.2573 9.47907 33.2573C4.57235 33.2573 0.594666 29.2796 0.594666 24.3729C0.594666 21.7859 1.70037 19.4571 3.46497 17.8334C5.04727 16.3775 7.15934 15.4885 9.47907 15.4885C14.3858 15.4885 18.3635 19.4661 18.3635 24.3729Z" fill="#197BBD"/>
    <path d="M44.0045 24.3729C44.0045 29.2796 40.0268 33.2573 35.1201 33.2573C30.2134 33.2573 26.2357 29.2796 26.2357 24.3729C26.2357 23.7461 26.3006 23.1345 26.424 22.5444C27.267 18.5149 30.8401 15.4885 35.1201 15.4885C40.0268 15.4885 44.0045 19.4661 44.0045 24.3729Z" fill="#197BBD"/>
    <path d="M34.027 13.7517C34.027 18.2233 30.7236 21.9233 26.424 22.5444C26.0056 22.6048 25.5778 22.6361 25.1426 22.6361C20.8303 22.6361 17.2355 19.5637 16.4279 15.4885C16.3166 14.9268 16.2582 14.3461 16.2582 13.7517C16.2582 12.9711 16.3589 12.214 16.548 11.4927C17.5473 7.68007 21.0165 4.86731 25.1426 4.86731C30.0494 4.86731 34.027 8.84499 34.027 13.7517Z" fill="#197BBD"/>
    <path d="M18.3635 24.3729C18.3635 29.2796 14.3858 33.2573 9.47907 33.2573H35.1201C30.2134 33.2573 26.2357 29.2796 26.2357 24.3729C26.2357 23.7461 26.3006 23.1345 26.424 22.5444C26.0056 22.6048 25.5778 22.6361 25.1426 22.6361C20.8303 22.6361 17.2355 19.5637 16.4279 15.4885H10.6326H9.47907C14.3858 15.4885 18.3635 19.4661 18.3635 24.3729Z" fill="#197BBD"/>
    <path d="M16.4279 15.4885C16.3166 14.9268 16.2582 14.3461 16.2582 13.7517C16.2582 12.9711 16.3589 12.214 16.548 11.4927C15.8055 12.8247 13.5831 15.4885 10.6326 15.4885H16.4279Z" fill="#197BBD"/>
    <circle cx="35.2619" cy="11.0472" r="8.01481" transform="rotate(-30 35.2619 11.0472)" fill="#FFC145"/>
    <path d="M38.4974 11.237C38.7834 11.7324 38.8576 12.2472 38.7199 12.7814C38.5822 13.3156 38.2862 13.791 37.8319 14.2077L38.1774 14.8061C38.274 14.9734 38.2959 15.1452 38.2433 15.3214C38.2008 15.5004 38.0959 15.6382 37.9286 15.7347C37.7677 15.8276 37.5992 15.8477 37.4229 15.795C37.2504 15.7488 37.1158 15.6421 37.0192 15.4748L36.7072 14.9343C36.3412 15.1027 35.98 15.2126 35.6236 15.264C35.2736 15.3116 34.8966 15.2976 34.4927 15.222C34.2298 15.1679 34.0445 15.0475 33.9368 14.8609C33.8513 14.7129 33.8317 14.5527 33.878 14.3802C33.9205 14.2012 34.0189 14.0671 34.1734 13.978C34.2956 13.9074 34.4273 13.8829 34.5684 13.9043C34.8607 13.95 35.1248 13.9691 35.3607 13.9616C35.5928 13.9477 35.8244 13.8955 36.0553 13.8051L34.9687 11.9231C33.538 12.4317 32.518 12.1584 31.9088 11.1032C31.6005 10.5692 31.528 10.0277 31.6915 9.47863C31.8512 8.92316 32.1951 8.44151 32.7231 8.03369L32.5393 7.7152C32.4427 7.54792 32.4175 7.37801 32.4637 7.20547C32.5127 7.02279 32.6208 6.88316 32.7881 6.78658C32.9489 6.69371 33.1175 6.67361 33.2937 6.72627C33.4663 6.7725 33.6008 6.87926 33.6974 7.04655L33.9036 7.40364C34.5062 7.1844 35.0717 7.12383 35.6002 7.22192C35.8722 7.26218 36.064 7.37882 36.1754 7.57184C36.2609 7.71983 36.2823 7.8833 36.2398 8.06227C36.1936 8.2348 36.0965 8.36378 35.9485 8.44922C35.852 8.50494 35.7484 8.52614 35.6378 8.51281C35.3519 8.4634 34.9985 8.48294 34.5778 8.57144L35.6086 10.3569C36.3182 10.1446 36.8981 10.1014 37.3484 10.2275C37.7949 10.3472 38.1779 10.6837 38.4974 11.237ZM33.0198 10.3975C33.1424 10.6098 33.3102 10.7445 33.5234 10.8016C33.7328 10.8523 33.9917 10.8401 34.3001 10.765L33.3751 9.16288C33.141 9.36666 32.9954 9.57511 32.9383 9.78824C32.8812 10.0014 32.9084 10.2044 33.0198 10.3975ZM37.1633 13.0496C37.3053 12.8647 37.3989 12.6776 37.4441 12.4885C37.4857 12.293 37.4637 12.1212 37.3783 11.9732C37.2742 11.7931 37.1336 11.6684 36.9564 11.5991C36.7754 11.5234 36.5528 11.5018 36.2884 11.5344L37.1633 13.0496Z" fill="#404040"/>
</svg>
