<svg width="20" height="20" viewBox="0 0 20 20" fill="none" xmlns="http://www.w3.org/2000/svg">
<path d="M10.3 12.7785C11.5785 12.7785 12.6149 11.742 12.6149 10.4635C12.6149 9.18503 11.5785 8.1486 10.3 8.1486C9.02148 8.1486 7.98505 9.18503 7.98505 10.4635C7.98505 11.742 9.02148 12.7785 10.3 12.7785Z" stroke="#C7C7C7" stroke-width="2" stroke-linecap="round" stroke-linejoin="round"/>
<path d="M16.01 12.7783C15.9072 13.011 15.8766 13.2692 15.922 13.5195C15.9674 13.7698 16.0867 14.0008 16.2646 14.1827L16.3109 14.229C16.4544 14.3723 16.5682 14.5425 16.6459 14.7298C16.7235 14.9172 16.7635 15.118 16.7635 15.3208C16.7635 15.5236 16.7235 15.7245 16.6459 15.9118C16.5682 16.0992 16.4544 16.2694 16.3109 16.4127C16.1676 16.5562 15.9974 16.67 15.81 16.7477C15.6227 16.8254 15.4218 16.8653 15.219 16.8653C15.0162 16.8653 14.8154 16.8254 14.628 16.7477C14.4407 16.67 14.2705 16.5562 14.1271 16.4127L14.0808 16.3664C13.899 16.1885 13.668 16.0692 13.4177 16.0238C13.1674 15.9784 12.9092 16.009 12.6765 16.1118C12.4482 16.2096 12.2536 16.372 12.1165 16.579C11.9794 16.786 11.9058 17.0286 11.9048 17.2769V17.4081C11.9048 17.8174 11.7422 18.21 11.4528 18.4994C11.1634 18.7888 10.7708 18.9514 10.3615 18.9514C9.95222 18.9514 9.55967 18.7888 9.27025 18.4994C8.98083 18.21 8.81823 17.8174 8.81823 17.4081V17.3387C8.81226 17.0833 8.72959 16.8356 8.58096 16.6278C8.43234 16.42 8.22463 16.2617 7.98486 16.1735C7.75212 16.0708 7.49394 16.0401 7.24363 16.0855C6.99331 16.1309 6.76233 16.2502 6.58047 16.4281L6.53417 16.4744C6.39084 16.6179 6.22063 16.7318 6.03328 16.8094C5.84593 16.8871 5.6451 16.9271 5.44229 16.9271C5.23948 16.9271 5.03866 16.8871 4.8513 16.8094C4.66395 16.7318 4.49374 16.6179 4.35041 16.4744C4.20693 16.3311 4.09309 16.1609 4.01543 15.9735C3.93776 15.7862 3.89779 15.5854 3.89779 15.3826C3.89779 15.1797 3.93776 14.9789 4.01543 14.7916C4.09309 14.6042 4.20693 14.434 4.35041 14.2907L4.39671 14.2444C4.57461 14.0625 4.69394 13.8315 4.73933 13.5812C4.78471 13.3309 4.75407 13.0727 4.65136 12.84C4.55354 12.6118 4.39112 12.4171 4.1841 12.28C3.97707 12.1429 3.73448 12.0693 3.48617 12.0683H3.35499C2.94569 12.0683 2.55315 11.9058 2.26373 11.6163C1.9743 11.3269 1.81171 10.9344 1.81171 10.5251C1.81171 10.1158 1.9743 9.72321 2.26373 9.43379C2.55315 9.14437 2.94569 8.98177 3.35499 8.98177H3.42444C3.67985 8.9758 3.92756 8.89313 4.13536 8.7445C4.34316 8.59588 4.50144 8.38817 4.58962 8.1484C4.69234 7.91566 4.72298 7.65748 4.6776 7.40717C4.63221 7.15685 4.51287 6.92587 4.33498 6.74401L4.28868 6.69771C4.14519 6.55438 4.03136 6.38417 3.9537 6.19682C3.87603 6.00947 3.83606 5.80864 3.83606 5.60583C3.83606 5.40302 3.87603 5.2022 3.9537 5.01484C4.03136 4.82749 4.14519 4.65728 4.28868 4.51395C4.43201 4.37047 4.60222 4.25663 4.78957 4.17897C4.97692 4.1013 5.17775 4.06133 5.38056 4.06133C5.58337 4.06133 5.78419 4.1013 5.97155 4.17897C6.1589 4.25663 6.32911 4.37047 6.47244 4.51395L6.51873 4.56025C6.70059 4.73815 6.93158 4.85748 7.18189 4.90287C7.43221 4.94825 7.69039 4.91761 7.92313 4.8149H7.98486C8.21309 4.71708 8.40773 4.55466 8.54483 4.34764C8.68194 4.14061 8.75551 3.89802 8.7565 3.64971V3.51853C8.7565 3.10923 8.9191 2.71669 9.20852 2.42726C9.49794 2.13784 9.89048 1.97525 10.2998 1.97525C10.7091 1.97525 11.1016 2.13784 11.3911 2.42726C11.6805 2.71669 11.8431 3.10923 11.8431 3.51853V3.58798C11.8441 3.83629 11.9176 4.07888 12.0547 4.28591C12.1918 4.49293 12.3865 4.65535 12.6147 4.75316C12.8475 4.85588 13.1056 4.88652 13.356 4.84114C13.6063 4.79575 13.8373 4.67641 14.0191 4.49852L14.0654 4.45222C14.2087 4.30873 14.3789 4.1949 14.5663 4.11724C14.7537 4.03957 14.9545 3.9996 15.1573 3.9996C15.3601 3.9996 15.5609 4.03957 15.7483 4.11724C15.9356 4.1949 16.1058 4.30873 16.2492 4.45222C16.3927 4.59555 16.5065 4.76576 16.5841 4.95311C16.6618 5.14046 16.7018 5.34129 16.7018 5.5441C16.7018 5.74691 16.6618 5.94773 16.5841 6.13509C16.5065 6.32244 16.3927 6.49265 16.2492 6.63598L16.2029 6.68227C16.025 6.86413 15.9056 7.09512 15.8603 7.34543C15.8149 7.59575 15.8455 7.85393 15.9482 8.08667V8.1484C16.046 8.37663 16.2085 8.57127 16.4155 8.70837C16.6225 8.84548 16.8651 8.91905 17.1134 8.92004H17.2446C17.6539 8.92004 18.0464 9.08264 18.3359 9.37206C18.6253 9.66148 18.7879 10.054 18.7879 10.4633C18.7879 10.8726 18.6253 11.2652 18.3359 11.5546C18.0464 11.844 17.6539 12.0066 17.2446 12.0066H17.1751C16.9268 12.0076 16.6842 12.0812 16.4772 12.2183C16.2702 12.3554 16.1078 12.55 16.01 12.7783V12.7783Z" stroke="#C7C7C7" stroke-width="2" stroke-linecap="round" stroke-linejoin="round"/>
</svg>
